<?xml version="1.0" encoding="utf-8" standalone="no"?>
<!DOCTYPE svg PUBLIC "-//W3C//DTD SVG 1.1//EN"
  "http://www.w3.org/Graphics/SVG/1.1/DTD/svg11.dtd">
<svg height="288pt" version="1.1" viewBox="0 0 432 288" width="432pt" xmlns="http://www.w3.org/2000/svg" xmlns:xlink="http://www.w3.org/1999/xlink">
 <metadata>
  <rdf:RDF xmlns:cc="http://creativecommons.org/ns#" xmlns:dc="http://purl.org/dc/elements/1.1/" xmlns:rdf="http://www.w3.org/1999/02/22-rdf-syntax-ns#">
   <cc:Work>
    <dc:type rdf:resource="http://purl.org/dc/dcmitype/StillImage"/>
    <dc:date>2023-01-11T11:27:35.489581</dc:date>
    <dc:format>image/svg+xml</dc:format>
    <dc:creator>
     <cc:Agent>
      <dc:title>Matplotlib v3.4.3, https://matplotlib.org/</dc:title>
     </cc:Agent>
    </dc:creator>
   </cc:Work>
  </rdf:RDF>
 </metadata>
 <defs>
  <style type="text/css">*{stroke-linecap:butt;stroke-linejoin:round;}</style>
 </defs>
 <g id="figure_1">
  <g id="patch_1">
   <path d="M 0 288 
L 432 288 
L 432 0 
L 0 0 
z
" style="fill:#ffffff;"/>
  </g>
  <g id="axes_1">
   <g id="patch_2">
    <path d="M 38.265 254.28 
L 220.18 254.28 
L 220.18 18.64 
L 38.265 18.64 
z
" style="fill:#ffffff;"/>
   </g>
   <g id="matplotlib.axis_1">
    <g id="xtick_1">
     <g id="line2d_1">
      <path clip-path="url(#pd6a14bcb59)" d="M 43.730859 254.28 
L 43.730859 18.64 
" style="fill:none;stroke:#cccccc;stroke-linecap:round;stroke-width:0.8;"/>
     </g>
     <g id="text_1">
      <!-- 0 -->
      <g style="fill:#262626;" transform="translate(40.95039 268.437813)scale(0.1 -0.1)">
       <defs>
        <path d="M 266 2259 
Q 266 3072 433 3567 
Q 600 4063 929 4331 
Q 1259 4600 1759 4600 
Q 2128 4600 2406 4451 
Q 2684 4303 2865 4023 
Q 3047 3744 3150 3342 
Q 3253 2941 3253 2259 
Q 3253 1453 3087 958 
Q 2922 463 2592 192 
Q 2263 -78 1759 -78 
Q 1097 -78 719 397 
Q 266 969 266 2259 
z
M 844 2259 
Q 844 1131 1108 757 
Q 1372 384 1759 384 
Q 2147 384 2411 759 
Q 2675 1134 2675 2259 
Q 2675 3391 2411 3762 
Q 2147 4134 1753 4134 
Q 1366 4134 1134 3806 
Q 844 3388 844 2259 
z
" id="ArialMT-30" transform="scale(0.015625)"/>
       </defs>
       <use xlink:href="#ArialMT-30"/>
      </g>
     </g>
    </g>
    <g id="xtick_2">
     <g id="line2d_2">
      <path clip-path="url(#pd6a14bcb59)" d="M 78.768417 254.28 
L 78.768417 18.64 
" style="fill:none;stroke:#cccccc;stroke-linecap:round;stroke-width:0.8;"/>
     </g>
     <g id="text_2">
      <!-- 25 -->
      <g style="fill:#262626;" transform="translate(73.207479 268.437813)scale(0.1 -0.1)">
       <defs>
        <path d="M 3222 541 
L 3222 0 
L 194 0 
Q 188 203 259 391 
Q 375 700 629 1000 
Q 884 1300 1366 1694 
Q 2113 2306 2375 2664 
Q 2638 3022 2638 3341 
Q 2638 3675 2398 3904 
Q 2159 4134 1775 4134 
Q 1369 4134 1125 3890 
Q 881 3647 878 3216 
L 300 3275 
Q 359 3922 746 4261 
Q 1134 4600 1788 4600 
Q 2447 4600 2831 4234 
Q 3216 3869 3216 3328 
Q 3216 3053 3103 2787 
Q 2991 2522 2730 2228 
Q 2469 1934 1863 1422 
Q 1356 997 1212 845 
Q 1069 694 975 541 
L 3222 541 
z
" id="ArialMT-32" transform="scale(0.015625)"/>
        <path d="M 266 1200 
L 856 1250 
Q 922 819 1161 601 
Q 1400 384 1738 384 
Q 2144 384 2425 690 
Q 2706 997 2706 1503 
Q 2706 1984 2436 2262 
Q 2166 2541 1728 2541 
Q 1456 2541 1237 2417 
Q 1019 2294 894 2097 
L 366 2166 
L 809 4519 
L 3088 4519 
L 3088 3981 
L 1259 3981 
L 1013 2750 
Q 1425 3038 1878 3038 
Q 2478 3038 2890 2622 
Q 3303 2206 3303 1553 
Q 3303 931 2941 478 
Q 2500 -78 1738 -78 
Q 1113 -78 717 272 
Q 322 622 266 1200 
z
" id="ArialMT-35" transform="scale(0.015625)"/>
       </defs>
       <use xlink:href="#ArialMT-32"/>
       <use x="55.615234" xlink:href="#ArialMT-35"/>
      </g>
     </g>
    </g>
    <g id="xtick_3">
     <g id="line2d_3">
      <path clip-path="url(#pd6a14bcb59)" d="M 113.805975 254.28 
L 113.805975 18.64 
" style="fill:none;stroke:#cccccc;stroke-linecap:round;stroke-width:0.8;"/>
     </g>
     <g id="text_3">
      <!-- 50 -->
      <g style="fill:#262626;" transform="translate(108.245037 268.437813)scale(0.1 -0.1)">
       <use xlink:href="#ArialMT-35"/>
       <use x="55.615234" xlink:href="#ArialMT-30"/>
      </g>
     </g>
    </g>
    <g id="xtick_4">
     <g id="line2d_4">
      <path clip-path="url(#pd6a14bcb59)" d="M 148.843532 254.28 
L 148.843532 18.64 
" style="fill:none;stroke:#cccccc;stroke-linecap:round;stroke-width:0.8;"/>
     </g>
     <g id="text_4">
      <!-- 75 -->
      <g style="fill:#262626;" transform="translate(143.282595 268.437813)scale(0.1 -0.1)">
       <defs>
        <path d="M 303 3981 
L 303 4522 
L 3269 4522 
L 3269 4084 
Q 2831 3619 2401 2847 
Q 1972 2075 1738 1259 
Q 1569 684 1522 0 
L 944 0 
Q 953 541 1156 1306 
Q 1359 2072 1739 2783 
Q 2119 3494 2547 3981 
L 303 3981 
z
" id="ArialMT-37" transform="scale(0.015625)"/>
       </defs>
       <use xlink:href="#ArialMT-37"/>
       <use x="55.615234" xlink:href="#ArialMT-35"/>
      </g>
     </g>
    </g>
    <g id="xtick_5">
     <g id="line2d_5">
      <path clip-path="url(#pd6a14bcb59)" d="M 183.88109 254.28 
L 183.88109 18.64 
" style="fill:none;stroke:#cccccc;stroke-linecap:round;stroke-width:0.8;"/>
     </g>
     <g id="text_5">
      <!-- 100 -->
      <g style="fill:#262626;" transform="translate(175.539684 268.437813)scale(0.1 -0.1)">
       <defs>
        <path d="M 2384 0 
L 1822 0 
L 1822 3584 
Q 1619 3391 1289 3197 
Q 959 3003 697 2906 
L 697 3450 
Q 1169 3672 1522 3987 
Q 1875 4303 2022 4600 
L 2384 4600 
L 2384 0 
z
" id="ArialMT-31" transform="scale(0.015625)"/>
       </defs>
       <use xlink:href="#ArialMT-31"/>
       <use x="55.615234" xlink:href="#ArialMT-30"/>
       <use x="111.230469" xlink:href="#ArialMT-30"/>
      </g>
     </g>
    </g>
    <g id="xtick_6">
     <g id="line2d_6">
      <path clip-path="url(#pd6a14bcb59)" d="M 218.918648 254.28 
L 218.918648 18.64 
" style="fill:none;stroke:#cccccc;stroke-linecap:round;stroke-width:0.8;"/>
     </g>
     <g id="text_6">
      <!-- 125 -->
      <g style="fill:#262626;" transform="translate(210.577242 268.437813)scale(0.1 -0.1)">
       <use xlink:href="#ArialMT-31"/>
       <use x="55.615234" xlink:href="#ArialMT-32"/>
       <use x="111.230469" xlink:href="#ArialMT-35"/>
      </g>
     </g>
    </g>
    <g id="text_7">
     <!-- time in minutes -->
     <g style="fill:#262626;" transform="translate(95.601406 281.583125)scale(0.1 -0.1)">
      <defs>
       <path d="M 1650 503 
L 1731 6 
Q 1494 -44 1306 -44 
Q 1000 -44 831 53 
Q 663 150 594 308 
Q 525 466 525 972 
L 525 2881 
L 113 2881 
L 113 3319 
L 525 3319 
L 525 4141 
L 1084 4478 
L 1084 3319 
L 1650 3319 
L 1650 2881 
L 1084 2881 
L 1084 941 
Q 1084 700 1114 631 
Q 1144 563 1211 522 
Q 1278 481 1403 481 
Q 1497 481 1650 503 
z
" id="ArialMT-74" transform="scale(0.015625)"/>
       <path d="M 425 3934 
L 425 4581 
L 988 4581 
L 988 3934 
L 425 3934 
z
M 425 0 
L 425 3319 
L 988 3319 
L 988 0 
L 425 0 
z
" id="ArialMT-69" transform="scale(0.015625)"/>
       <path d="M 422 0 
L 422 3319 
L 925 3319 
L 925 2853 
Q 1081 3097 1340 3245 
Q 1600 3394 1931 3394 
Q 2300 3394 2536 3241 
Q 2772 3088 2869 2813 
Q 3263 3394 3894 3394 
Q 4388 3394 4653 3120 
Q 4919 2847 4919 2278 
L 4919 0 
L 4359 0 
L 4359 2091 
Q 4359 2428 4304 2576 
Q 4250 2725 4106 2815 
Q 3963 2906 3769 2906 
Q 3419 2906 3187 2673 
Q 2956 2441 2956 1928 
L 2956 0 
L 2394 0 
L 2394 2156 
Q 2394 2531 2256 2718 
Q 2119 2906 1806 2906 
Q 1569 2906 1367 2781 
Q 1166 2656 1075 2415 
Q 984 2175 984 1722 
L 984 0 
L 422 0 
z
" id="ArialMT-6d" transform="scale(0.015625)"/>
       <path d="M 2694 1069 
L 3275 997 
Q 3138 488 2766 206 
Q 2394 -75 1816 -75 
Q 1088 -75 661 373 
Q 234 822 234 1631 
Q 234 2469 665 2931 
Q 1097 3394 1784 3394 
Q 2450 3394 2872 2941 
Q 3294 2488 3294 1666 
Q 3294 1616 3291 1516 
L 816 1516 
Q 847 969 1125 678 
Q 1403 388 1819 388 
Q 2128 388 2347 550 
Q 2566 713 2694 1069 
z
M 847 1978 
L 2700 1978 
Q 2663 2397 2488 2606 
Q 2219 2931 1791 2931 
Q 1403 2931 1139 2672 
Q 875 2413 847 1978 
z
" id="ArialMT-65" transform="scale(0.015625)"/>
       <path id="ArialMT-20" transform="scale(0.015625)"/>
       <path d="M 422 0 
L 422 3319 
L 928 3319 
L 928 2847 
Q 1294 3394 1984 3394 
Q 2284 3394 2536 3286 
Q 2788 3178 2913 3003 
Q 3038 2828 3088 2588 
Q 3119 2431 3119 2041 
L 3119 0 
L 2556 0 
L 2556 2019 
Q 2556 2363 2490 2533 
Q 2425 2703 2258 2804 
Q 2091 2906 1866 2906 
Q 1506 2906 1245 2678 
Q 984 2450 984 1813 
L 984 0 
L 422 0 
z
" id="ArialMT-6e" transform="scale(0.015625)"/>
       <path d="M 2597 0 
L 2597 488 
Q 2209 -75 1544 -75 
Q 1250 -75 995 37 
Q 741 150 617 320 
Q 494 491 444 738 
Q 409 903 409 1263 
L 409 3319 
L 972 3319 
L 972 1478 
Q 972 1038 1006 884 
Q 1059 663 1231 536 
Q 1403 409 1656 409 
Q 1909 409 2131 539 
Q 2353 669 2445 892 
Q 2538 1116 2538 1541 
L 2538 3319 
L 3100 3319 
L 3100 0 
L 2597 0 
z
" id="ArialMT-75" transform="scale(0.015625)"/>
       <path d="M 197 991 
L 753 1078 
Q 800 744 1014 566 
Q 1228 388 1613 388 
Q 2000 388 2187 545 
Q 2375 703 2375 916 
Q 2375 1106 2209 1216 
Q 2094 1291 1634 1406 
Q 1016 1563 777 1677 
Q 538 1791 414 1992 
Q 291 2194 291 2438 
Q 291 2659 392 2848 
Q 494 3038 669 3163 
Q 800 3259 1026 3326 
Q 1253 3394 1513 3394 
Q 1903 3394 2198 3281 
Q 2494 3169 2634 2976 
Q 2775 2784 2828 2463 
L 2278 2388 
Q 2241 2644 2061 2787 
Q 1881 2931 1553 2931 
Q 1166 2931 1000 2803 
Q 834 2675 834 2503 
Q 834 2394 903 2306 
Q 972 2216 1119 2156 
Q 1203 2125 1616 2013 
Q 2213 1853 2448 1751 
Q 2684 1650 2818 1456 
Q 2953 1263 2953 975 
Q 2953 694 2789 445 
Q 2625 197 2315 61 
Q 2006 -75 1616 -75 
Q 969 -75 630 194 
Q 291 463 197 991 
z
" id="ArialMT-73" transform="scale(0.015625)"/>
      </defs>
      <use xlink:href="#ArialMT-74"/>
      <use x="27.783203" xlink:href="#ArialMT-69"/>
      <use x="50" xlink:href="#ArialMT-6d"/>
      <use x="133.300781" xlink:href="#ArialMT-65"/>
      <use x="188.916016" xlink:href="#ArialMT-20"/>
      <use x="216.699219" xlink:href="#ArialMT-69"/>
      <use x="238.916016" xlink:href="#ArialMT-6e"/>
      <use x="294.53125" xlink:href="#ArialMT-20"/>
      <use x="322.314453" xlink:href="#ArialMT-6d"/>
      <use x="405.615234" xlink:href="#ArialMT-69"/>
      <use x="427.832031" xlink:href="#ArialMT-6e"/>
      <use x="483.447266" xlink:href="#ArialMT-75"/>
      <use x="539.0625" xlink:href="#ArialMT-74"/>
      <use x="566.845703" xlink:href="#ArialMT-65"/>
      <use x="622.460938" xlink:href="#ArialMT-73"/>
     </g>
    </g>
   </g>
   <g id="matplotlib.axis_2">
    <g id="ytick_1">
     <g id="line2d_7">
      <path clip-path="url(#pd6a14bcb59)" d="M 38.265 205.247781 
L 220.18 205.247781 
" style="fill:none;stroke:#cccccc;stroke-linecap:round;stroke-width:0.8;"/>
     </g>
     <g id="text_8">
      <!-- 0.6 -->
      <g style="fill:#262626;" transform="translate(17.365 208.826687)scale(0.1 -0.1)">
       <defs>
        <path d="M 581 0 
L 581 641 
L 1222 641 
L 1222 0 
L 581 0 
z
" id="ArialMT-2e" transform="scale(0.015625)"/>
        <path d="M 3184 3459 
L 2625 3416 
Q 2550 3747 2413 3897 
Q 2184 4138 1850 4138 
Q 1581 4138 1378 3988 
Q 1113 3794 959 3422 
Q 806 3050 800 2363 
Q 1003 2672 1297 2822 
Q 1591 2972 1913 2972 
Q 2475 2972 2870 2558 
Q 3266 2144 3266 1488 
Q 3266 1056 3080 686 
Q 2894 316 2569 119 
Q 2244 -78 1831 -78 
Q 1128 -78 684 439 
Q 241 956 241 2144 
Q 241 3472 731 4075 
Q 1159 4600 1884 4600 
Q 2425 4600 2770 4297 
Q 3116 3994 3184 3459 
z
M 888 1484 
Q 888 1194 1011 928 
Q 1134 663 1356 523 
Q 1578 384 1822 384 
Q 2178 384 2434 671 
Q 2691 959 2691 1453 
Q 2691 1928 2437 2201 
Q 2184 2475 1800 2475 
Q 1419 2475 1153 2201 
Q 888 1928 888 1484 
z
" id="ArialMT-36" transform="scale(0.015625)"/>
       </defs>
       <use xlink:href="#ArialMT-30"/>
       <use x="55.615234" xlink:href="#ArialMT-2e"/>
       <use x="83.398438" xlink:href="#ArialMT-36"/>
      </g>
     </g>
    </g>
    <g id="ytick_2">
     <g id="line2d_8">
      <path clip-path="url(#pd6a14bcb59)" d="M 38.265 153.740644 
L 220.18 153.740644 
" style="fill:none;stroke:#cccccc;stroke-linecap:round;stroke-width:0.8;"/>
     </g>
     <g id="text_9">
      <!-- 0.8 -->
      <g style="fill:#262626;" transform="translate(17.365 157.319551)scale(0.1 -0.1)">
       <defs>
        <path d="M 1131 2484 
Q 781 2613 612 2850 
Q 444 3088 444 3419 
Q 444 3919 803 4259 
Q 1163 4600 1759 4600 
Q 2359 4600 2725 4251 
Q 3091 3903 3091 3403 
Q 3091 3084 2923 2848 
Q 2756 2613 2416 2484 
Q 2838 2347 3058 2040 
Q 3278 1734 3278 1309 
Q 3278 722 2862 322 
Q 2447 -78 1769 -78 
Q 1091 -78 675 323 
Q 259 725 259 1325 
Q 259 1772 486 2073 
Q 713 2375 1131 2484 
z
M 1019 3438 
Q 1019 3113 1228 2906 
Q 1438 2700 1772 2700 
Q 2097 2700 2305 2904 
Q 2513 3109 2513 3406 
Q 2513 3716 2298 3927 
Q 2084 4138 1766 4138 
Q 1444 4138 1231 3931 
Q 1019 3725 1019 3438 
z
M 838 1322 
Q 838 1081 952 856 
Q 1066 631 1291 507 
Q 1516 384 1775 384 
Q 2178 384 2440 643 
Q 2703 903 2703 1303 
Q 2703 1709 2433 1975 
Q 2163 2241 1756 2241 
Q 1359 2241 1098 1978 
Q 838 1716 838 1322 
z
" id="ArialMT-38" transform="scale(0.015625)"/>
       </defs>
       <use xlink:href="#ArialMT-30"/>
       <use x="55.615234" xlink:href="#ArialMT-2e"/>
       <use x="83.398438" xlink:href="#ArialMT-38"/>
      </g>
     </g>
    </g>
    <g id="ytick_3">
     <g id="line2d_9">
      <path clip-path="url(#pd6a14bcb59)" d="M 38.265 102.233508 
L 220.18 102.233508 
" style="fill:none;stroke:#cccccc;stroke-linecap:round;stroke-width:0.8;"/>
     </g>
     <g id="text_10">
      <!-- 1.0 -->
      <g style="fill:#262626;" transform="translate(17.365 105.812414)scale(0.1 -0.1)">
       <use xlink:href="#ArialMT-31"/>
       <use x="55.615234" xlink:href="#ArialMT-2e"/>
       <use x="83.398438" xlink:href="#ArialMT-30"/>
      </g>
     </g>
    </g>
    <g id="ytick_4">
     <g id="line2d_10">
      <path clip-path="url(#pd6a14bcb59)" d="M 38.265 50.726371 
L 220.18 50.726371 
" style="fill:none;stroke:#cccccc;stroke-linecap:round;stroke-width:0.8;"/>
     </g>
     <g id="text_11">
      <!-- 1.2 -->
      <g style="fill:#262626;" transform="translate(17.365 54.305277)scale(0.1 -0.1)">
       <use xlink:href="#ArialMT-31"/>
       <use x="55.615234" xlink:href="#ArialMT-2e"/>
       <use x="83.398438" xlink:href="#ArialMT-32"/>
      </g>
     </g>
    </g>
    <g id="text_12">
     <!-- concentration in mmol/L -->
     <g style="fill:#262626;" transform="translate(11.3775 189.537344)rotate(-90)scale(0.1 -0.1)">
      <defs>
       <path d="M 2588 1216 
L 3141 1144 
Q 3050 572 2676 248 
Q 2303 -75 1759 -75 
Q 1078 -75 664 370 
Q 250 816 250 1647 
Q 250 2184 428 2587 
Q 606 2991 970 3192 
Q 1334 3394 1763 3394 
Q 2303 3394 2647 3120 
Q 2991 2847 3088 2344 
L 2541 2259 
Q 2463 2594 2264 2762 
Q 2066 2931 1784 2931 
Q 1359 2931 1093 2626 
Q 828 2322 828 1663 
Q 828 994 1084 691 
Q 1341 388 1753 388 
Q 2084 388 2306 591 
Q 2528 794 2588 1216 
z
" id="ArialMT-63" transform="scale(0.015625)"/>
       <path d="M 213 1659 
Q 213 2581 725 3025 
Q 1153 3394 1769 3394 
Q 2453 3394 2887 2945 
Q 3322 2497 3322 1706 
Q 3322 1066 3130 698 
Q 2938 331 2570 128 
Q 2203 -75 1769 -75 
Q 1072 -75 642 372 
Q 213 819 213 1659 
z
M 791 1659 
Q 791 1022 1069 705 
Q 1347 388 1769 388 
Q 2188 388 2466 706 
Q 2744 1025 2744 1678 
Q 2744 2294 2464 2611 
Q 2184 2928 1769 2928 
Q 1347 2928 1069 2612 
Q 791 2297 791 1659 
z
" id="ArialMT-6f" transform="scale(0.015625)"/>
       <path d="M 416 0 
L 416 3319 
L 922 3319 
L 922 2816 
Q 1116 3169 1280 3281 
Q 1444 3394 1641 3394 
Q 1925 3394 2219 3213 
L 2025 2691 
Q 1819 2813 1613 2813 
Q 1428 2813 1281 2702 
Q 1134 2591 1072 2394 
Q 978 2094 978 1738 
L 978 0 
L 416 0 
z
" id="ArialMT-72" transform="scale(0.015625)"/>
       <path d="M 2588 409 
Q 2275 144 1986 34 
Q 1697 -75 1366 -75 
Q 819 -75 525 192 
Q 231 459 231 875 
Q 231 1119 342 1320 
Q 453 1522 633 1644 
Q 813 1766 1038 1828 
Q 1203 1872 1538 1913 
Q 2219 1994 2541 2106 
Q 2544 2222 2544 2253 
Q 2544 2597 2384 2738 
Q 2169 2928 1744 2928 
Q 1347 2928 1158 2789 
Q 969 2650 878 2297 
L 328 2372 
Q 403 2725 575 2942 
Q 747 3159 1072 3276 
Q 1397 3394 1825 3394 
Q 2250 3394 2515 3294 
Q 2781 3194 2906 3042 
Q 3031 2891 3081 2659 
Q 3109 2516 3109 2141 
L 3109 1391 
Q 3109 606 3145 398 
Q 3181 191 3288 0 
L 2700 0 
Q 2613 175 2588 409 
z
M 2541 1666 
Q 2234 1541 1622 1453 
Q 1275 1403 1131 1340 
Q 988 1278 909 1158 
Q 831 1038 831 891 
Q 831 666 1001 516 
Q 1172 366 1500 366 
Q 1825 366 2078 508 
Q 2331 650 2450 897 
Q 2541 1088 2541 1459 
L 2541 1666 
z
" id="ArialMT-61" transform="scale(0.015625)"/>
       <path d="M 409 0 
L 409 4581 
L 972 4581 
L 972 0 
L 409 0 
z
" id="ArialMT-6c" transform="scale(0.015625)"/>
       <path d="M 0 -78 
L 1328 4659 
L 1778 4659 
L 453 -78 
L 0 -78 
z
" id="ArialMT-2f" transform="scale(0.015625)"/>
       <path d="M 469 0 
L 469 4581 
L 1075 4581 
L 1075 541 
L 3331 541 
L 3331 0 
L 469 0 
z
" id="ArialMT-4c" transform="scale(0.015625)"/>
      </defs>
      <use xlink:href="#ArialMT-63"/>
      <use x="50" xlink:href="#ArialMT-6f"/>
      <use x="105.615234" xlink:href="#ArialMT-6e"/>
      <use x="161.230469" xlink:href="#ArialMT-63"/>
      <use x="211.230469" xlink:href="#ArialMT-65"/>
      <use x="266.845703" xlink:href="#ArialMT-6e"/>
      <use x="322.460938" xlink:href="#ArialMT-74"/>
      <use x="350.244141" xlink:href="#ArialMT-72"/>
      <use x="383.544922" xlink:href="#ArialMT-61"/>
      <use x="439.160156" xlink:href="#ArialMT-74"/>
      <use x="466.943359" xlink:href="#ArialMT-69"/>
      <use x="489.160156" xlink:href="#ArialMT-6f"/>
      <use x="544.775391" xlink:href="#ArialMT-6e"/>
      <use x="600.390625" xlink:href="#ArialMT-20"/>
      <use x="628.173828" xlink:href="#ArialMT-69"/>
      <use x="650.390625" xlink:href="#ArialMT-6e"/>
      <use x="706.005859" xlink:href="#ArialMT-20"/>
      <use x="733.789062" xlink:href="#ArialMT-6d"/>
      <use x="817.089844" xlink:href="#ArialMT-6d"/>
      <use x="900.390625" xlink:href="#ArialMT-6f"/>
      <use x="956.005859" xlink:href="#ArialMT-6c"/>
      <use x="978.222656" xlink:href="#ArialMT-2f"/>
      <use x="1006.005859" xlink:href="#ArialMT-4c"/>
     </g>
    </g>
   </g>
   <g id="line2d_11">
    <defs>
     <path d="M -3 3 
L 3 3 
L 3 -3 
L -3 -3 
z
" id="mc65bcf315f" style="stroke:#000000;stroke-linejoin:miter;"/>
    </defs>
    <g clip-path="url(#pd6a14bcb59)">
     <use style="stroke:#000000;stroke-linejoin:miter;" x="46.533864" xlink:href="#mc65bcf315f" y="237.491249"/>
     <use style="stroke:#000000;stroke-linejoin:miter;" x="49.336868" xlink:href="#mc65bcf315f" y="226.082418"/>
     <use style="stroke:#000000;stroke-linejoin:miter;" x="52.139873" xlink:href="#mc65bcf315f" y="210.21822"/>
     <use style="stroke:#000000;stroke-linejoin:miter;" x="54.942878" xlink:href="#mc65bcf315f" y="193.014836"/>
     <use style="stroke:#000000;stroke-linejoin:miter;" x="71.760905" xlink:href="#mc65bcf315f" y="100.018701"/>
    </g>
   </g>
   <g id="line2d_12">
    <defs>
     <path d="M 0 3 
C 0.795609 3 1.55874 2.683901 2.12132 2.12132 
C 2.683901 1.55874 3 0.795609 3 0 
C 3 -0.795609 2.683901 -1.55874 2.12132 -2.12132 
C 1.55874 -2.683901 0.795609 -3 0 -3 
C -0.795609 -3 -1.55874 -2.683901 -2.12132 -2.12132 
C -2.683901 -1.55874 -3 -0.795609 -3 0 
C -3 0.795609 -2.683901 1.55874 -2.12132 2.12132 
C -1.55874 2.683901 -0.795609 3 0 3 
z
" id="mbeac2fbcb6" style="stroke:#a9a9a9;"/>
    </defs>
    <g clip-path="url(#pd6a14bcb59)">
     <use style="fill:#a9a9a9;stroke:#a9a9a9;" x="46.533864" xlink:href="#mbeac2fbcb6" y="163.578508"/>
     <use style="fill:#a9a9a9;stroke:#a9a9a9;" x="57.745882" xlink:href="#mbeac2fbcb6" y="154.590512"/>
     <use style="fill:#a9a9a9;stroke:#a9a9a9;" x="71.760905" xlink:href="#mbeac2fbcb6" y="152.015155"/>
     <use style="fill:#a9a9a9;stroke:#a9a9a9;" x="85.775928" xlink:href="#mbeac2fbcb6" y="154.204209"/>
     <use style="fill:#a9a9a9;stroke:#a9a9a9;" x="127.820998" xlink:href="#mbeac2fbcb6" y="115.445088"/>
     <use style="fill:#a9a9a9;stroke:#a9a9a9;" x="169.866067" xlink:href="#mbeac2fbcb6" y="80.858046"/>
     <use style="fill:#a9a9a9;stroke:#a9a9a9;" x="211.911136" xlink:href="#mbeac2fbcb6" y="72.977454"/>
    </g>
   </g>
   <g id="line2d_13">
    <defs>
     <path d="M -3 3 
L 3 -3 
M -3 -3 
L 3 3 
" id="m05ec276dcc" style="stroke:#a9a9a9;"/>
    </defs>
    <g clip-path="url(#pd6a14bcb59)">
     <use style="fill:#a9a9a9;stroke:#a9a9a9;" x="46.533864" xlink:href="#m05ec276dcc" y="207.951906"/>
     <use style="fill:#a9a9a9;stroke:#a9a9a9;" x="57.745882" xlink:href="#m05ec276dcc" y="208.595745"/>
     <use style="fill:#a9a9a9;stroke:#a9a9a9;" x="71.760905" xlink:href="#m05ec276dcc" y="212.510287"/>
     <use style="fill:#a9a9a9;stroke:#a9a9a9;" x="85.775928" xlink:href="#m05ec276dcc" y="202.105846"/>
     <use style="fill:#a9a9a9;stroke:#a9a9a9;" x="127.820998" xlink:href="#m05ec276dcc" y="187.374805"/>
     <use style="fill:#a9a9a9;stroke:#a9a9a9;" x="169.866067" xlink:href="#m05ec276dcc" y="137.644664"/>
     <use style="fill:#a9a9a9;stroke:#a9a9a9;" x="211.911136" xlink:href="#m05ec276dcc" y="117.556881"/>
    </g>
   </g>
   <g id="line2d_14">
    <defs>
     <path d="M 0 4.242641 
L 2.545584 0 
L 0 -4.242641 
L -2.545584 0 
z
" id="m7de99ddc7a" style="stroke:#d3d3d3;stroke-linejoin:miter;"/>
    </defs>
    <g clip-path="url(#pd6a14bcb59)">
     <use style="fill:#d3d3d3;stroke:#d3d3d3;stroke-linejoin:miter;" x="46.533864" xlink:href="#m7de99ddc7a" y="243.569091"/>
     <use style="fill:#d3d3d3;stroke:#d3d3d3;stroke-linejoin:miter;" x="49.336868" xlink:href="#m7de99ddc7a" y="215.446194"/>
     <use style="fill:#d3d3d3;stroke:#d3d3d3;stroke-linejoin:miter;" x="52.139873" xlink:href="#m7de99ddc7a" y="190.207697"/>
     <use style="fill:#d3d3d3;stroke:#d3d3d3;stroke-linejoin:miter;" x="54.942878" xlink:href="#m7de99ddc7a" y="164.840432"/>
     <use style="fill:#d3d3d3;stroke:#d3d3d3;stroke-linejoin:miter;" x="71.760905" xlink:href="#m7de99ddc7a" y="29.350909"/>
    </g>
   </g>
   <g id="patch_3">
    <path d="M 38.265 254.28 
L 38.265 18.64 
" style="fill:none;stroke:#cccccc;stroke-linecap:square;stroke-linejoin:miter;stroke-width:0.8;"/>
   </g>
   <g id="patch_4">
    <path d="M 220.18 254.28 
L 220.18 18.64 
" style="fill:none;stroke:#cccccc;stroke-linecap:square;stroke-linejoin:miter;stroke-width:0.8;"/>
   </g>
   <g id="patch_5">
    <path d="M 38.265 254.28 
L 220.18 254.28 
" style="fill:none;stroke:#cccccc;stroke-linecap:square;stroke-linejoin:miter;stroke-width:0.8;"/>
   </g>
   <g id="patch_6">
    <path d="M 38.265 18.64 
L 220.18 18.64 
" style="fill:none;stroke:#cccccc;stroke-linecap:square;stroke-linejoin:miter;stroke-width:0.8;"/>
   </g>
   <g id="text_13">
    <!-- H2a -->
    <g style="fill:#262626;" transform="translate(118.21625 12.64)scale(0.12 -0.12)">
     <defs>
      <path d="M 513 0 
L 513 4581 
L 1119 4581 
L 1119 2700 
L 3500 2700 
L 3500 4581 
L 4106 4581 
L 4106 0 
L 3500 0 
L 3500 2159 
L 1119 2159 
L 1119 0 
L 513 0 
z
" id="ArialMT-48" transform="scale(0.015625)"/>
     </defs>
     <use xlink:href="#ArialMT-48"/>
     <use x="72.216797" xlink:href="#ArialMT-32"/>
     <use x="127.832031" xlink:href="#ArialMT-61"/>
    </g>
   </g>
  </g>
  <g id="axes_2">
   <g id="patch_7">
    <path d="M 246.085 254.28 
L 428 254.28 
L 428 18.64 
L 246.085 18.64 
z
" style="fill:#ffffff;"/>
   </g>
   <g id="matplotlib.axis_3">
    <g id="xtick_7">
     <g id="line2d_15">
      <path clip-path="url(#pe200fc7980)" d="M 251.550859 254.28 
L 251.550859 18.64 
" style="fill:none;stroke:#cccccc;stroke-linecap:round;stroke-width:0.8;"/>
     </g>
     <g id="text_14">
      <!-- 0 -->
      <g style="fill:#262626;" transform="translate(248.77039 268.437813)scale(0.1 -0.1)">
       <use xlink:href="#ArialMT-30"/>
      </g>
     </g>
    </g>
    <g id="xtick_8">
     <g id="line2d_16">
      <path clip-path="url(#pe200fc7980)" d="M 286.588417 254.28 
L 286.588417 18.64 
" style="fill:none;stroke:#cccccc;stroke-linecap:round;stroke-width:0.8;"/>
     </g>
     <g id="text_15">
      <!-- 25 -->
      <g style="fill:#262626;" transform="translate(281.027479 268.437813)scale(0.1 -0.1)">
       <use xlink:href="#ArialMT-32"/>
       <use x="55.615234" xlink:href="#ArialMT-35"/>
      </g>
     </g>
    </g>
    <g id="xtick_9">
     <g id="line2d_17">
      <path clip-path="url(#pe200fc7980)" d="M 321.625975 254.28 
L 321.625975 18.64 
" style="fill:none;stroke:#cccccc;stroke-linecap:round;stroke-width:0.8;"/>
     </g>
     <g id="text_16">
      <!-- 50 -->
      <g style="fill:#262626;" transform="translate(316.065037 268.437813)scale(0.1 -0.1)">
       <use xlink:href="#ArialMT-35"/>
       <use x="55.615234" xlink:href="#ArialMT-30"/>
      </g>
     </g>
    </g>
    <g id="xtick_10">
     <g id="line2d_18">
      <path clip-path="url(#pe200fc7980)" d="M 356.663532 254.28 
L 356.663532 18.64 
" style="fill:none;stroke:#cccccc;stroke-linecap:round;stroke-width:0.8;"/>
     </g>
     <g id="text_17">
      <!-- 75 -->
      <g style="fill:#262626;" transform="translate(351.102595 268.437813)scale(0.1 -0.1)">
       <use xlink:href="#ArialMT-37"/>
       <use x="55.615234" xlink:href="#ArialMT-35"/>
      </g>
     </g>
    </g>
    <g id="xtick_11">
     <g id="line2d_19">
      <path clip-path="url(#pe200fc7980)" d="M 391.70109 254.28 
L 391.70109 18.64 
" style="fill:none;stroke:#cccccc;stroke-linecap:round;stroke-width:0.8;"/>
     </g>
     <g id="text_18">
      <!-- 100 -->
      <g style="fill:#262626;" transform="translate(383.359684 268.437813)scale(0.1 -0.1)">
       <use xlink:href="#ArialMT-31"/>
       <use x="55.615234" xlink:href="#ArialMT-30"/>
       <use x="111.230469" xlink:href="#ArialMT-30"/>
      </g>
     </g>
    </g>
    <g id="xtick_12">
     <g id="line2d_20">
      <path clip-path="url(#pe200fc7980)" d="M 426.738648 254.28 
L 426.738648 18.64 
" style="fill:none;stroke:#cccccc;stroke-linecap:round;stroke-width:0.8;"/>
     </g>
     <g id="text_19">
      <!-- 125 -->
      <g style="fill:#262626;" transform="translate(418.397242 268.437813)scale(0.1 -0.1)">
       <use xlink:href="#ArialMT-31"/>
       <use x="55.615234" xlink:href="#ArialMT-32"/>
       <use x="111.230469" xlink:href="#ArialMT-35"/>
      </g>
     </g>
    </g>
    <g id="text_20">
     <!-- time in minutes -->
     <g style="fill:#262626;" transform="translate(303.421406 281.583125)scale(0.1 -0.1)">
      <use xlink:href="#ArialMT-74"/>
      <use x="27.783203" xlink:href="#ArialMT-69"/>
      <use x="50" xlink:href="#ArialMT-6d"/>
      <use x="133.300781" xlink:href="#ArialMT-65"/>
      <use x="188.916016" xlink:href="#ArialMT-20"/>
      <use x="216.699219" xlink:href="#ArialMT-69"/>
      <use x="238.916016" xlink:href="#ArialMT-6e"/>
      <use x="294.53125" xlink:href="#ArialMT-20"/>
      <use x="322.314453" xlink:href="#ArialMT-6d"/>
      <use x="405.615234" xlink:href="#ArialMT-69"/>
      <use x="427.832031" xlink:href="#ArialMT-6e"/>
      <use x="483.447266" xlink:href="#ArialMT-75"/>
      <use x="539.0625" xlink:href="#ArialMT-74"/>
      <use x="566.845703" xlink:href="#ArialMT-65"/>
      <use x="622.460938" xlink:href="#ArialMT-73"/>
     </g>
    </g>
   </g>
   <g id="matplotlib.axis_4">
    <g id="ytick_5">
     <g id="line2d_21">
      <path clip-path="url(#pe200fc7980)" d="M 246.085 252.675676 
L 428 252.675676 
" style="fill:none;stroke:#cccccc;stroke-linecap:round;stroke-width:0.8;"/>
     </g>
     <g id="text_21">
      <!-- 0.4 -->
      <g style="fill:#262626;" transform="translate(225.185 256.254582)scale(0.1 -0.1)">
       <defs>
        <path d="M 2069 0 
L 2069 1097 
L 81 1097 
L 81 1613 
L 2172 4581 
L 2631 4581 
L 2631 1613 
L 3250 1613 
L 3250 1097 
L 2631 1097 
L 2631 0 
L 2069 0 
z
M 2069 1613 
L 2069 3678 
L 634 1613 
L 2069 1613 
z
" id="ArialMT-34" transform="scale(0.015625)"/>
       </defs>
       <use xlink:href="#ArialMT-30"/>
       <use x="55.615234" xlink:href="#ArialMT-2e"/>
       <use x="83.398438" xlink:href="#ArialMT-34"/>
      </g>
     </g>
    </g>
    <g id="ytick_6">
     <g id="line2d_22">
      <path clip-path="url(#pe200fc7980)" d="M 246.085 217.103078 
L 428 217.103078 
" style="fill:none;stroke:#cccccc;stroke-linecap:round;stroke-width:0.8;"/>
     </g>
     <g id="text_22">
      <!-- 0.6 -->
      <g style="fill:#262626;" transform="translate(225.185 220.681985)scale(0.1 -0.1)">
       <use xlink:href="#ArialMT-30"/>
       <use x="55.615234" xlink:href="#ArialMT-2e"/>
       <use x="83.398438" xlink:href="#ArialMT-36"/>
      </g>
     </g>
    </g>
    <g id="ytick_7">
     <g id="line2d_23">
      <path clip-path="url(#pe200fc7980)" d="M 246.085 181.530481 
L 428 181.530481 
" style="fill:none;stroke:#cccccc;stroke-linecap:round;stroke-width:0.8;"/>
     </g>
     <g id="text_23">
      <!-- 0.8 -->
      <g style="fill:#262626;" transform="translate(225.185 185.109387)scale(0.1 -0.1)">
       <use xlink:href="#ArialMT-30"/>
       <use x="55.615234" xlink:href="#ArialMT-2e"/>
       <use x="83.398438" xlink:href="#ArialMT-38"/>
      </g>
     </g>
    </g>
    <g id="ytick_8">
     <g id="line2d_24">
      <path clip-path="url(#pe200fc7980)" d="M 246.085 145.957884 
L 428 145.957884 
" style="fill:none;stroke:#cccccc;stroke-linecap:round;stroke-width:0.8;"/>
     </g>
     <g id="text_24">
      <!-- 1.0 -->
      <g style="fill:#262626;" transform="translate(225.185 149.53679)scale(0.1 -0.1)">
       <use xlink:href="#ArialMT-31"/>
       <use x="55.615234" xlink:href="#ArialMT-2e"/>
       <use x="83.398438" xlink:href="#ArialMT-30"/>
      </g>
     </g>
    </g>
    <g id="ytick_9">
     <g id="line2d_25">
      <path clip-path="url(#pe200fc7980)" d="M 246.085 110.385286 
L 428 110.385286 
" style="fill:none;stroke:#cccccc;stroke-linecap:round;stroke-width:0.8;"/>
     </g>
     <g id="text_25">
      <!-- 1.2 -->
      <g style="fill:#262626;" transform="translate(225.185 113.964192)scale(0.1 -0.1)">
       <use xlink:href="#ArialMT-31"/>
       <use x="55.615234" xlink:href="#ArialMT-2e"/>
       <use x="83.398438" xlink:href="#ArialMT-32"/>
      </g>
     </g>
    </g>
    <g id="ytick_10">
     <g id="line2d_26">
      <path clip-path="url(#pe200fc7980)" d="M 246.085 74.812689 
L 428 74.812689 
" style="fill:none;stroke:#cccccc;stroke-linecap:round;stroke-width:0.8;"/>
     </g>
     <g id="text_26">
      <!-- 1.4 -->
      <g style="fill:#262626;" transform="translate(225.185 78.391595)scale(0.1 -0.1)">
       <use xlink:href="#ArialMT-31"/>
       <use x="55.615234" xlink:href="#ArialMT-2e"/>
       <use x="83.398438" xlink:href="#ArialMT-34"/>
      </g>
     </g>
    </g>
    <g id="ytick_11">
     <g id="line2d_27">
      <path clip-path="url(#pe200fc7980)" d="M 246.085 39.240091 
L 428 39.240091 
" style="fill:none;stroke:#cccccc;stroke-linecap:round;stroke-width:0.8;"/>
     </g>
     <g id="text_27">
      <!-- 1.6 -->
      <g style="fill:#262626;" transform="translate(225.185 42.818997)scale(0.1 -0.1)">
       <use xlink:href="#ArialMT-31"/>
       <use x="55.615234" xlink:href="#ArialMT-2e"/>
       <use x="83.398438" xlink:href="#ArialMT-36"/>
      </g>
     </g>
    </g>
   </g>
   <g id="line2d_28">
    <g clip-path="url(#pe200fc7980)">
     <use style="stroke:#000000;stroke-linejoin:miter;" x="254.353864" xlink:href="#mc65bcf315f" y="234.800446"/>
     <use style="stroke:#000000;stroke-linejoin:miter;" x="257.156868" xlink:href="#mc65bcf315f" y="224.964622"/>
     <use style="stroke:#000000;stroke-linejoin:miter;" x="259.959873" xlink:href="#mc65bcf315f" y="210.255353"/>
     <use style="stroke:#000000;stroke-linejoin:miter;" x="262.762878" xlink:href="#mc65bcf315f" y="202.215946"/>
     <use style="stroke:#000000;stroke-linejoin:miter;" x="279.580905" xlink:href="#mc65bcf315f" y="29.350909"/>
    </g>
   </g>
   <g id="line2d_29">
    <g clip-path="url(#pe200fc7980)">
     <use style="fill:#a9a9a9;stroke:#a9a9a9;" x="254.353864" xlink:href="#mbeac2fbcb6" y="180.178722"/>
     <use style="fill:#a9a9a9;stroke:#a9a9a9;" x="265.565882" xlink:href="#mbeac2fbcb6" y="171.392291"/>
     <use style="fill:#a9a9a9;stroke:#a9a9a9;" x="279.580905" xlink:href="#mbeac2fbcb6" y="166.554417"/>
     <use style="fill:#a9a9a9;stroke:#a9a9a9;" x="293.595928" xlink:href="#mbeac2fbcb6" y="155.77592"/>
     <use style="fill:#a9a9a9;stroke:#a9a9a9;" x="335.640998" xlink:href="#mbeac2fbcb6" y="136.851299"/>
     <use style="fill:#a9a9a9;stroke:#a9a9a9;" x="377.686067" xlink:href="#mbeac2fbcb6" y="114.974151"/>
     <use style="fill:#a9a9a9;stroke:#a9a9a9;" x="419.731136" xlink:href="#mbeac2fbcb6" y="112.448497"/>
    </g>
   </g>
   <g id="line2d_30">
    <g clip-path="url(#pe200fc7980)">
     <use style="fill:#a9a9a9;stroke:#a9a9a9;" x="254.353864" xlink:href="#m05ec276dcc" y="197.164638"/>
     <use style="fill:#a9a9a9;stroke:#a9a9a9;" x="265.565882" xlink:href="#m05ec276dcc" y="181.654985"/>
     <use style="fill:#a9a9a9;stroke:#a9a9a9;" x="279.580905" xlink:href="#m05ec276dcc" y="178.50681"/>
     <use style="fill:#a9a9a9;stroke:#a9a9a9;" x="293.595928" xlink:href="#m05ec276dcc" y="175.28749"/>
     <use style="fill:#a9a9a9;stroke:#a9a9a9;" x="335.640998" xlink:href="#m05ec276dcc" y="169.240149"/>
     <use style="fill:#a9a9a9;stroke:#a9a9a9;" x="377.686067" xlink:href="#m05ec276dcc" y="143.147648"/>
     <use style="fill:#a9a9a9;stroke:#a9a9a9;" x="419.731136" xlink:href="#m05ec276dcc" y="137.847331"/>
    </g>
   </g>
   <g id="line2d_31">
    <g clip-path="url(#pe200fc7980)">
     <use style="fill:#d3d3d3;stroke:#d3d3d3;stroke-linejoin:miter;" x="254.353864" xlink:href="#m7de99ddc7a" y="243.569091"/>
     <use style="fill:#d3d3d3;stroke:#d3d3d3;stroke-linejoin:miter;" x="257.156868" xlink:href="#m7de99ddc7a" y="224.146453"/>
     <use style="fill:#d3d3d3;stroke:#d3d3d3;stroke-linejoin:miter;" x="259.959873" xlink:href="#m7de99ddc7a" y="206.71588"/>
     <use style="fill:#d3d3d3;stroke:#d3d3d3;stroke-linejoin:miter;" x="262.762878" xlink:href="#m7de99ddc7a" y="189.196376"/>
     <use style="fill:#d3d3d3;stroke:#d3d3d3;stroke-linejoin:miter;" x="279.580905" xlink:href="#m7de99ddc7a" y="95.622658"/>
    </g>
   </g>
   <g id="patch_8">
    <path d="M 246.085 254.28 
L 246.085 18.64 
" style="fill:none;stroke:#cccccc;stroke-linecap:square;stroke-linejoin:miter;stroke-width:0.8;"/>
   </g>
   <g id="patch_9">
    <path d="M 428 254.28 
L 428 18.64 
" style="fill:none;stroke:#cccccc;stroke-linecap:square;stroke-linejoin:miter;stroke-width:0.8;"/>
   </g>
   <g id="patch_10">
    <path d="M 246.085 254.28 
L 428 254.28 
" style="fill:none;stroke:#cccccc;stroke-linecap:square;stroke-linejoin:miter;stroke-width:0.8;"/>
   </g>
   <g id="patch_11">
    <path d="M 246.085 18.64 
L 428 18.64 
" style="fill:none;stroke:#cccccc;stroke-linecap:square;stroke-linejoin:miter;stroke-width:0.8;"/>
   </g>
   <g id="text_28">
    <!-- H2b -->
    <g style="fill:#262626;" transform="translate(326.03625 12.64)scale(0.12 -0.12)">
     <defs>
      <path d="M 941 0 
L 419 0 
L 419 4581 
L 981 4581 
L 981 2947 
Q 1338 3394 1891 3394 
Q 2197 3394 2470 3270 
Q 2744 3147 2920 2923 
Q 3097 2700 3197 2384 
Q 3297 2069 3297 1709 
Q 3297 856 2875 390 
Q 2453 -75 1863 -75 
Q 1275 -75 941 416 
L 941 0 
z
M 934 1684 
Q 934 1088 1097 822 
Q 1363 388 1816 388 
Q 2184 388 2453 708 
Q 2722 1028 2722 1663 
Q 2722 2313 2464 2622 
Q 2206 2931 1841 2931 
Q 1472 2931 1203 2611 
Q 934 2291 934 1684 
z
" id="ArialMT-62" transform="scale(0.015625)"/>
     </defs>
     <use xlink:href="#ArialMT-48"/>
     <use x="72.216797" xlink:href="#ArialMT-32"/>
     <use x="127.832031" xlink:href="#ArialMT-62"/>
    </g>
   </g>
   <g id="legend_1">
    <g id="patch_12">
     <path d="M 319.521875 83.460312 
L 421 83.460312 
Q 423 83.460312 423 81.460312 
L 423 25.64 
Q 423 23.64 421 23.64 
L 319.521875 23.64 
Q 317.521875 23.64 317.521875 25.64 
L 317.521875 81.460312 
Q 317.521875 83.460312 319.521875 83.460312 
z
" style="fill:#ffffff;opacity:0.8;stroke:#cccccc;stroke-linejoin:miter;"/>
    </g>
    <g id="line2d_32"/>
    <g id="line2d_33">
     <g>
      <use style="stroke:#000000;stroke-linejoin:miter;" x="331.521875" xlink:href="#mc65bcf315f" y="31.297812"/>
     </g>
    </g>
    <g id="text_29">
     <!-- control 25°C -->
     <g style="fill:#262626;" transform="translate(349.521875 34.797812)scale(0.1 -0.1)">
      <defs>
       <path d="M 400 3794 
Q 400 4153 654 4406 
Q 909 4659 1266 4659 
Q 1628 4659 1881 4406 
Q 2134 4153 2134 3794 
Q 2134 3434 1879 3179 
Q 1625 2925 1266 2925 
Q 909 2925 654 3178 
Q 400 3431 400 3794 
z
M 741 3794 
Q 741 3575 895 3420 
Q 1050 3266 1269 3266 
Q 1484 3266 1639 3420 
Q 1794 3575 1794 3794 
Q 1794 4013 1639 4167 
Q 1484 4322 1269 4322 
Q 1050 4322 895 4167 
Q 741 4013 741 3794 
z
" id="ArialMT-b0" transform="scale(0.015625)"/>
       <path d="M 3763 1606 
L 4369 1453 
Q 4178 706 3683 314 
Q 3188 -78 2472 -78 
Q 1731 -78 1267 223 
Q 803 525 561 1097 
Q 319 1669 319 2325 
Q 319 3041 592 3573 
Q 866 4106 1370 4382 
Q 1875 4659 2481 4659 
Q 3169 4659 3637 4309 
Q 4106 3959 4291 3325 
L 3694 3184 
Q 3534 3684 3231 3912 
Q 2928 4141 2469 4141 
Q 1941 4141 1586 3887 
Q 1231 3634 1087 3207 
Q 944 2781 944 2328 
Q 944 1744 1114 1308 
Q 1284 872 1643 656 
Q 2003 441 2422 441 
Q 2931 441 3284 734 
Q 3638 1028 3763 1606 
z
" id="ArialMT-43" transform="scale(0.015625)"/>
      </defs>
      <use xlink:href="#ArialMT-63"/>
      <use x="50" xlink:href="#ArialMT-6f"/>
      <use x="105.615234" xlink:href="#ArialMT-6e"/>
      <use x="161.230469" xlink:href="#ArialMT-74"/>
      <use x="189.013672" xlink:href="#ArialMT-72"/>
      <use x="222.314453" xlink:href="#ArialMT-6f"/>
      <use x="277.929688" xlink:href="#ArialMT-6c"/>
      <use x="300.146484" xlink:href="#ArialMT-20"/>
      <use x="327.929688" xlink:href="#ArialMT-32"/>
      <use x="383.544922" xlink:href="#ArialMT-35"/>
      <use x="439.160156" xlink:href="#ArialMT-b0"/>
      <use x="479.150391" xlink:href="#ArialMT-43"/>
     </g>
    </g>
    <g id="line2d_34"/>
    <g id="line2d_35">
     <g>
      <use style="fill:#a9a9a9;stroke:#a9a9a9;" x="331.521875" xlink:href="#mbeac2fbcb6" y="45.565"/>
     </g>
    </g>
    <g id="text_30">
     <!-- AFM_off -->
     <g style="fill:#262626;" transform="translate(349.521875 49.065)scale(0.1 -0.1)">
      <defs>
       <path d="M -9 0 
L 1750 4581 
L 2403 4581 
L 4278 0 
L 3588 0 
L 3053 1388 
L 1138 1388 
L 634 0 
L -9 0 
z
M 1313 1881 
L 2866 1881 
L 2388 3150 
Q 2169 3728 2063 4100 
Q 1975 3659 1816 3225 
L 1313 1881 
z
" id="ArialMT-41" transform="scale(0.015625)"/>
       <path d="M 525 0 
L 525 4581 
L 3616 4581 
L 3616 4041 
L 1131 4041 
L 1131 2622 
L 3281 2622 
L 3281 2081 
L 1131 2081 
L 1131 0 
L 525 0 
z
" id="ArialMT-46" transform="scale(0.015625)"/>
       <path d="M 475 0 
L 475 4581 
L 1388 4581 
L 2472 1338 
Q 2622 884 2691 659 
Q 2769 909 2934 1394 
L 4031 4581 
L 4847 4581 
L 4847 0 
L 4263 0 
L 4263 3834 
L 2931 0 
L 2384 0 
L 1059 3900 
L 1059 0 
L 475 0 
z
" id="ArialMT-4d" transform="scale(0.015625)"/>
       <path d="M -97 -1272 
L -97 -866 
L 3631 -866 
L 3631 -1272 
L -97 -1272 
z
" id="ArialMT-5f" transform="scale(0.015625)"/>
       <path d="M 556 0 
L 556 2881 
L 59 2881 
L 59 3319 
L 556 3319 
L 556 3672 
Q 556 4006 616 4169 
Q 697 4388 901 4523 
Q 1106 4659 1475 4659 
Q 1713 4659 2000 4603 
L 1916 4113 
Q 1741 4144 1584 4144 
Q 1328 4144 1222 4034 
Q 1116 3925 1116 3625 
L 1116 3319 
L 1763 3319 
L 1763 2881 
L 1116 2881 
L 1116 0 
L 556 0 
z
" id="ArialMT-66" transform="scale(0.015625)"/>
      </defs>
      <use xlink:href="#ArialMT-41"/>
      <use x="66.699219" xlink:href="#ArialMT-46"/>
      <use x="127.783203" xlink:href="#ArialMT-4d"/>
      <use x="211.083984" xlink:href="#ArialMT-5f"/>
      <use x="266.699219" xlink:href="#ArialMT-6f"/>
      <use x="322.314453" xlink:href="#ArialMT-66"/>
      <use x="348.347656" xlink:href="#ArialMT-66"/>
     </g>
    </g>
    <g id="line2d_36"/>
    <g id="line2d_37">
     <g>
      <use style="fill:#a9a9a9;stroke:#a9a9a9;" x="331.521875" xlink:href="#m05ec276dcc" y="59.710312"/>
     </g>
    </g>
    <g id="text_31">
     <!-- AFM_on -->
     <g style="fill:#262626;" transform="translate(349.521875 63.210312)scale(0.1 -0.1)">
      <use xlink:href="#ArialMT-41"/>
      <use x="66.699219" xlink:href="#ArialMT-46"/>
      <use x="127.783203" xlink:href="#ArialMT-4d"/>
      <use x="211.083984" xlink:href="#ArialMT-5f"/>
      <use x="266.699219" xlink:href="#ArialMT-6f"/>
      <use x="322.314453" xlink:href="#ArialMT-6e"/>
     </g>
    </g>
    <g id="line2d_38"/>
    <g id="line2d_39">
     <g>
      <use style="fill:#d3d3d3;stroke:#d3d3d3;stroke-linejoin:miter;" x="331.521875" xlink:href="#m7de99ddc7a" y="73.855625"/>
     </g>
    </g>
    <g id="text_32">
     <!-- soluble enzyme -->
     <g style="fill:#262626;" transform="translate(349.521875 77.355625)scale(0.1 -0.1)">
      <defs>
       <path d="M 125 0 
L 125 456 
L 2238 2881 
Q 1878 2863 1603 2863 
L 250 2863 
L 250 3319 
L 2963 3319 
L 2963 2947 
L 1166 841 
L 819 456 
Q 1197 484 1528 484 
L 3063 484 
L 3063 0 
L 125 0 
z
" id="ArialMT-7a" transform="scale(0.015625)"/>
       <path d="M 397 -1278 
L 334 -750 
Q 519 -800 656 -800 
Q 844 -800 956 -737 
Q 1069 -675 1141 -563 
Q 1194 -478 1313 -144 
Q 1328 -97 1363 -6 
L 103 3319 
L 709 3319 
L 1400 1397 
Q 1534 1031 1641 628 
Q 1738 1016 1872 1384 
L 2581 3319 
L 3144 3319 
L 1881 -56 
Q 1678 -603 1566 -809 
Q 1416 -1088 1222 -1217 
Q 1028 -1347 759 -1347 
Q 597 -1347 397 -1278 
z
" id="ArialMT-79" transform="scale(0.015625)"/>
      </defs>
      <use xlink:href="#ArialMT-73"/>
      <use x="50" xlink:href="#ArialMT-6f"/>
      <use x="105.615234" xlink:href="#ArialMT-6c"/>
      <use x="127.832031" xlink:href="#ArialMT-75"/>
      <use x="183.447266" xlink:href="#ArialMT-62"/>
      <use x="239.0625" xlink:href="#ArialMT-6c"/>
      <use x="261.279297" xlink:href="#ArialMT-65"/>
      <use x="316.894531" xlink:href="#ArialMT-20"/>
      <use x="344.677734" xlink:href="#ArialMT-65"/>
      <use x="400.292969" xlink:href="#ArialMT-6e"/>
      <use x="455.908203" xlink:href="#ArialMT-7a"/>
      <use x="505.908203" xlink:href="#ArialMT-79"/>
      <use x="555.908203" xlink:href="#ArialMT-6d"/>
      <use x="639.208984" xlink:href="#ArialMT-65"/>
     </g>
    </g>
   </g>
  </g>
 </g>
 <defs>
  <clipPath id="pd6a14bcb59">
   <rect height="235.64" width="181.915" x="38.265" y="18.64"/>
  </clipPath>
  <clipPath id="pe200fc7980">
   <rect height="235.64" width="181.915" x="246.085" y="18.64"/>
  </clipPath>
 </defs>
</svg>
